<svg id="_0185_marketing_1" xmlns="http://www.w3.org/2000/svg" xmlns:xlink="http://www.w3.org/1999/xlink" viewBox="0 0 500 500" data-imageid="marketing-1-91" imageName="Marketing 1" class="illustrations_image" style="width: 144px;"><defs><style>.cls-1_marketing-1-91{opacity:.58;}.cls-1_marketing-1-91,.cls-2_marketing-1-91,.cls-3_marketing-1-91,.cls-4_marketing-1-91,.cls-5_marketing-1-91,.cls-6_marketing-1-91,.cls-7_marketing-1-91,.cls-8_marketing-1-91,.cls-9_marketing-1-91,.cls-10_marketing-1-91,.cls-11_marketing-1-91,.cls-12_marketing-1-91,.cls-13_marketing-1-91,.cls-14_marketing-1-91,.cls-15_marketing-1-91,.cls-16_marketing-1-91,.cls-17_marketing-1-91,.cls-18_marketing-1-91,.cls-19_marketing-1-91,.cls-20_marketing-1-91{stroke-width:0px;}.cls-1_marketing-1-91,.cls-2_marketing-1-91,.cls-8_marketing-1-91,.cls-17_marketing-1-91{isolation:isolate;}.cls-1_marketing-1-91,.cls-2_marketing-1-91,.cls-8_marketing-1-91,.cls-17_marketing-1-91,.cls-20_marketing-1-91{fill:#68e1fd;}.cls-2_marketing-1-91{opacity:.11;}.cls-3_marketing-1-91{fill:url(#linear-gradient);}.cls-4_marketing-1-91{fill:url(#linear-gradient-11-marketing-1-91);}.cls-5_marketing-1-91{fill:url(#linear-gradient-12-marketing-1-91);}.cls-6_marketing-1-91{fill:url(#linear-gradient-13-marketing-1-91);}.cls-7_marketing-1-91{fill:url(#linear-gradient-10-marketing-1-91);}.cls-8_marketing-1-91{opacity:.14;}.cls-9_marketing-1-91{fill:url(#linear-gradient-4-marketing-1-91);}.cls-10_marketing-1-91{fill:url(#linear-gradient-2-marketing-1-91);}.cls-11_marketing-1-91{fill:url(#linear-gradient-3-marketing-1-91);}.cls-12_marketing-1-91{fill:url(#linear-gradient-8-marketing-1-91);}.cls-13_marketing-1-91{fill:url(#linear-gradient-9-marketing-1-91);}.cls-14_marketing-1-91{fill:url(#linear-gradient-7-marketing-1-91);}.cls-15_marketing-1-91{fill:url(#linear-gradient-5-marketing-1-91);}.cls-16_marketing-1-91{fill:url(#linear-gradient-6-marketing-1-91);}.cls-17_marketing-1-91{opacity:.24;}.cls-18_marketing-1-91{fill:#fff;}.cls-19_marketing-1-91{fill:#ffaa71;}</style><linearGradient id="linear-gradient-marketing-1-91" x1="734.38" y1="3070.13" x2="736.87" y2="2988.04" gradientTransform="translate(-471 3371.95) scale(1 -1)" gradientUnits="userSpaceOnUse"><stop offset="0" stop-color="#fff" stop-opacity="0"/><stop offset=".95" stop-color="#fff"/></linearGradient><linearGradient id="linear-gradient-2-marketing-1-91" x1="736.35" y1="3003.28" x2="739.11" y2="2943.58" gradientTransform="translate(-471 3371.95) scale(1 -1)" gradientUnits="userSpaceOnUse"><stop offset="0" stop-color="#231f20" stop-opacity="0"/><stop offset="1" stop-color="#231f20"/></linearGradient><linearGradient id="linear-gradient-3-marketing-1-91" x1="-3706.69" y1="3026.69" x2="-3606.92" y2="3085" gradientTransform="translate(-3396.81 3317.13) rotate(-180)" xlink:href="#linear-gradient-2-marketing-1-91"/><linearGradient id="linear-gradient-4-marketing-1-91" x1="-3687.51" y1="3036.85" x2="-3676.33" y2="3110.63" gradientTransform="translate(-3396.81 3317.13) rotate(-180)" xlink:href="#linear-gradient-2-marketing-1-91"/><linearGradient id="linear-gradient-5-marketing-1-91" x1="-3690.72" y1="3035.76" x2="-3680.24" y2="3104.85" gradientTransform="translate(-3396.81 3317.13) rotate(-180)" xlink:href="#linear-gradient-2-marketing-1-91"/><linearGradient id="linear-gradient-6-marketing-1-91" x1="-3567.27" y1="3131.98" x2="-3652.96" y2="3106" gradientTransform="translate(-3745.92 -2506.32) rotate(-104.45)" xlink:href="#linear-gradient-2-marketing-1-91"/><linearGradient id="linear-gradient-7-marketing-1-91" x1="607.85" y1="3210.59" x2="633.89" y2="3210.59" gradientTransform="translate(-469.65 3317.13) scale(1 -1)" xlink:href="#linear-gradient-marketing-1-91"/><linearGradient id="linear-gradient-8-marketing-1-91" x1="563.79" y1="3227.03" x2="602.16" y2="3227.03" xlink:href="#linear-gradient-marketing-1-91"/><linearGradient id="linear-gradient-9-marketing-1-91" x1="556.04" y1="3160.33" x2="591.6" y2="3160.33" xlink:href="#linear-gradient-marketing-1-91"/><linearGradient id="linear-gradient-10-marketing-1-91" x1="-3607.64" y1="3122.92" x2="-3559.97" y2="3131.21" gradientTransform="translate(-3743.14 -2508.19) rotate(-104.45)" xlink:href="#linear-gradient-2-marketing-1-91"/><linearGradient id="linear-gradient-11-marketing-1-91" x1="-3586.21" y1="3130.35" x2="-3623.25" y2="3119.12" gradientTransform="translate(-3396.81 3317.13) rotate(-180)" xlink:href="#linear-gradient-2-marketing-1-91"/><linearGradient id="linear-gradient-12-marketing-1-91" x1="-3737.31" y1="3105.05" x2="-3673.74" y2="3019.1" gradientTransform="translate(-3396.81 3317.13) rotate(-180)" xlink:href="#linear-gradient-2-marketing-1-91"/><linearGradient id="linear-gradient-13-marketing-1-91" x1="-3622.35" y1="3126.29" x2="-3498.81" y2="3122.56" gradientTransform="translate(-3396.81 3317.13) rotate(-180)" xlink:href="#linear-gradient-2-marketing-1-91"/></defs><path id="background_marketing-1-91" class="cls-17_marketing-1-91 targetColor" d="M66.01,178.59c-4.14,20.4-4.04,41.7-10.66,61.44-11.92,35.55-44.51,62.53-51.08,99.46-4.8,26.93,6.47,56.11,28.1,72.84,18.6,14.37,42.67,19.24,65.93,22.57,87.22,12.49,175.91,9.27,263.78,3.12,32.03-2.24,65.16-5.2,93.19-20.82,17.81-9.93,27.97-24.38,35.56-43.3,7.59-18.93,11.87-42.4.74-59.49-12.24-18.76-35.88-30.62-40.58-52.54-4-18.68,7.53-36.63,15.86-53.82,13.88-28.63,19.29-63.87,3.91-91.72-9.5-17.18-25.87-29.66-43.45-38.4-49.2-24.45-107.03-22.09-161.74-16.97-79.24,7.42-180.91,25.93-199.57,117.62Z" style="fill: rgb(0, 104, 55);"/><g id="laptop_marketing-1-91"><rect class="cls-20_marketing-1-91 targetColor" x="132.69" y="163.63" width="267.33" height="172.76" rx="14.2" ry="14.2" style="fill: rgb(0, 104, 55);"/><rect class="cls-18_marketing-1-91" x="139.1" y="170.31" width="252.25" height="163.02" rx="13.4" ry="13.4"/><rect class="cls-2_marketing-1-91 targetColor" x="164.95" y="217.61" width="96.45" height="104.19" rx="10.57" ry="10.57" style="fill: rgb(0, 104, 55);"/><polygon class="cls-20_marketing-1-91 targetColor" points="141.26 335.08 91.55 372.5 439.49 372.5 390.9 334.53 141.26 335.08" style="fill: rgb(0, 104, 55);"/><polygon class="cls-3_marketing-1-91" points="141.26 335.08 91.55 372.5 439.49 372.5 390.9 334.53 141.26 335.08"/><polygon class="cls-20_marketing-1-91 targetColor" points="105.8 386.19 91.55 372.5 439.49 372.5 426.64 387.03 105.8 386.19" style="fill: rgb(0, 104, 55);"/><polygon class="cls-10_marketing-1-91" points="105.8 386.19 91.55 372.5 439.49 372.5 426.64 387.03 105.8 386.19"/><polygon class="cls-1_marketing-1-91 targetColor" points="226.43 366.64 241.23 354.91 295.4 354.63 311.03 366.36 226.43 366.64" style="fill: rgb(0, 104, 55);"/><polygon class="cls-1_marketing-1-91 targetColor" points="123.38 352.77 404.86 352.4 389.79 340.11 140.7 340.11 123.38 352.77" style="fill: rgb(0, 104, 55);"/></g><g id="megaphone_marketing-1-91"><path class="cls-8_marketing-1-91 targetColor" d="M160.48,246.94s-2.08,8.29,4.56,12.42c6.63,4.14,31.92-7.05,47.26-8.71,15.34-1.66,46.87,4.57,46.87,4.57,0,0-5.85,10.79-5.41,22.81.44,12.02,1.24,21.56,0,23.63-1.24,2.08,7.04,10.36,8.29,10.78s12.42,1.24,12.42,1.24l14.1,20.73,35.86-.77-22.04-72.8,10.65-35.88-98.64-12.85-53.9,34.82Z" style="fill: rgb(0, 104, 55);"/><path class="cls-19_marketing-1-91" d="M296.07,313.8c-1.62-2.19-4.48-3.05-7.04-4.03-10.04-3.86-17.95-11.74-24.98-19.87-1.63-1.88-3.27-3.85-3.98-6.23-.86-2.96-.21-6.15,1.74-8.53.4-.43.76-.88,1.08-1.37.37-.74.62-1.53.73-2.35.49-2.44,1.63-5.23,4.07-5.73.55-.05,1.09-.15,1.62-.31.88-.39,1.3-1.37,1.68-2.25,1.41-3.26,3.75-6.67,7.27-7.11.45,0,.9-.1,1.32-.28.98-.56.85-1.97,1.07-3.08.54-2.77,3.95-4.18,6.71-3.59s4.98,2.58,7.07,4.48l7.99,7.31c2.15,1.96,4.38,4,7.26,4.68.48.17,1.01.14,1.46-.09.46-.41.73-1,.73-1.61,1-6.15,11.92-12.95,16.69-12.12-2.92,8.29-5.2,21.39-6.91,33.39,8.12,13.42,20.2,23.54,32.46,33.31,3.03,2.53,6.22,4.86,9.56,6.96,3.98,2.37,8.37,4.12,11.9,7.11l-51.15,1.19c-1.42.12-2.85-.02-4.22-.42-1.33-.56-2.54-1.37-3.57-2.39-4.87-4.24-9.6-8.62-14.18-13.15-1.62-1.58-4.14-3.32-6.37-3.89Z"/><path class="cls-11_marketing-1-91" d="M307.97,276.79c-.53,4.44-2.92,8.42-5.54,12.03-1.84,2.73-4.12,5.15-6.73,7.16-2.66,2.01-5.94,3-9.27,2.8-2.75-.27-5.3-1.58-7.13-3.65-.64-.67-1.09-1.5-1.31-2.4-.39-2.08,1.16-3.97,2.63-5.5,5.47-5.7,11.31-11.04,17.47-15.98,1.91-1.53,7.21-6.08,10-5.01,1.35.52.12,8.37-.13,10.56Z"/><path class="cls-20_marketing-1-91 targetColor" d="M323.34,247.75l-46.03,59.29s-12.02-.83-19.49-7.05c-7.47-6.22,5.81-9.95,5.81-9.95,0,0,27.36-27.36,31.09-48.92l28.62,6.63Z" style="fill: rgb(0, 104, 55);"/><path class="cls-9_marketing-1-91" d="M257.81,299.98c3.47,2.89,7.83,4.6,11.54,5.6,2.6.73,5.26,1.22,7.95,1.46l45.3-58.24.77-1-28.64-6.62c-3.71,21.56-31.1,48.96-31.1,48.96,0,0-13.24,3.65-5.83,9.85Z"/><path class="cls-15_marketing-1-91" d="M265.28,302.92c1.25,1.04,2.61,1.93,4.07,2.65,2.6.73,5.26,1.22,7.95,1.46l45.3-58.24-20.38-4.77c-3.77,21.56-31.1,48.96-31.1,48.96,0,0-13.32,3.73-5.85,9.94Z"/><path class="cls-20_marketing-1-91 targetColor" d="M356.1,213.53c-3.03-5.66-8.32-9.76-14.56-11.27-28.73-6.92-118.7-31.96-123.92-75.12,0,0-1.66-11.19-15.75-11.19s-36.48,133.49-32.75,136.39c3.73,2.9,16.58-3.32,23.21-9.5,6.63-6.18,25.29-19.07,50.58-11.19,11.38,3.54,32.1,8.35,51.45,12.56,13.88,3.03,27.08,5.74,35.6,7.47,7.21,1.45,14.62-1.18,19.31-6.84,5.3-6.33,10.44-15.92,8.48-28.17,0,.02-.66-1.3-1.64-3.13Z" style="fill: rgb(0, 104, 55);"/><ellipse class="cls-20_marketing-1-91 targetColor" cx="183.37" cy="184.1" rx="69.92" ry="23.56" transform="translate(-40.45 316.08) rotate(-75.64)" style="fill: rgb(0, 104, 55);"/><ellipse class="cls-16_marketing-1-91" cx="183.37" cy="184.1" rx="69.92" ry="23.56" transform="translate(-40.45 316.08) rotate(-75.64)"/><path class="cls-14_marketing-1-91" d="M138.2,94.76c1.05,2.11,17.95,30.96,17.95,30.96l8.1-5.63-8.83-32.72-17.22,7.39Z"/><polygon class="cls-12_marketing-1-91" points="104.05 130.31 131.16 150.73 125.52 159.53 92.79 149.32 104.05 130.31"/><polygon class="cls-13_marketing-1-91" points="85.04 206.35 120.24 200.71 120.6 210.92 86.1 222.54 85.04 206.35"/><ellipse class="cls-7_marketing-1-91" cx="185.96" cy="184.95" rx="21.04" ry="7.09" transform="translate(-39.34 319.23) rotate(-75.64)"/><path class="cls-4_marketing-1-91" d="M191.16,164.56l17.96,2.37s-6.84,43.53-14.51,47.26l-12.23-9.13,8.78-40.51Z"/><path class="cls-19_marketing-1-91" d="M294.86,260.85c2.55,2.14,5.53,3.69,8.29,5.55,1.8,1.21,3.65,2.84,3.79,5.02,0,1.08-.29,2.15-.83,3.08-.98,1.92-2.33,3.62-3.97,5.01-1.32,1.12-2.82,2.04-3.92,3.37-.71.96-1.35,1.97-1.91,3.03-1.99,3.27-4.84,5.92-7.65,8.52-.79.78-1.64,1.47-2.56,2.08-2.74,1.58-6.06,1.82-9,.66-2.91-1.17-5.42-3.16-7.22-5.74-1.91-2.59-3.29-5.85-2.74-8.98.44-1.91,1.25-3.71,2.37-5.3,3.65-5.85,7.86-11.34,12.57-16.38,1.21-1.29,5.36-6.85,7.27-6.58,1.45.18,4.03,5.4,5.52,6.66Z"/><path class="cls-5_marketing-1-91" d="M315.43,221.52s-4.89,22.07-21.1,22.65l40.19,9.14s14.37-.83,17.13-6.63c2.77-5.8,17.12-25.96-3.03-41.74l-32.34-9.94s3.6,13.26-.85,26.53Z"/><path class="cls-6_marketing-1-91" d="M220.11,142.47s4.72,51.94-25.43,97.84c0,0,17.97-13.82,39.8-10.78,0,0,11.89-43.67,6.63-55.83-5.25-12.17-21.01-31.23-21.01-31.23Z"/></g><g id="bubble_marketing-1-91"><rect class="cls-8_marketing-1-91 targetColor" x="362.95" y="267.73" width="95.55" height="41.39" rx="11.14" ry="11.14" style="fill: rgb(0, 104, 55);"/><rect class="cls-8_marketing-1-91 targetColor" x="364.89" y="173.22" width="95.55" height="41.39" rx="11.14" ry="11.14" style="fill: rgb(0, 104, 55);"/><path class="cls-18_marketing-1-91" d="M329.95,87.02h117.39c9.86,0,17.87,8.01,17.87,17.87v30.61c0,9.86-8.01,17.87-17.87,17.87h-117.39c-9.86,0-17.87-8.01-17.87-17.87v-30.61c0-9.86,8.01-17.87,17.87-17.87Z"/><rect class="cls-18_marketing-1-91" x="368.58" y="167.94" width="95.55" height="41.39" rx="11.14" ry="11.14"/><rect class="cls-18_marketing-1-91" x="199.62" y="69.2" width="95.55" height="41.39" rx="11.14" ry="11.14"/><rect class="cls-18_marketing-1-91" x="367.88" y="262.11" width="95.55" height="41.39" rx="11.14" ry="11.14"/><rect class="cls-8_marketing-1-91 targetColor" x="64.63" y="265.62" width="95.55" height="41.39" rx="11.14" ry="11.14" style="fill: rgb(0, 104, 55);"/><rect class="cls-18_marketing-1-91" x="60.23" y="261.4" width="95.55" height="41.39" rx="11.14" ry="11.14"/><rect class="cls-2_marketing-1-91 targetColor" x="75.01" y="270.06" width="70.75" height="4.75" rx="1.87" ry="1.87" style="fill: rgb(0, 104, 55);"/><rect class="cls-2_marketing-1-91 targetColor" x="75.01" y="286.42" width="70.75" height="4.75" rx="1.87" ry="1.87" style="fill: rgb(0, 104, 55);"/><path class="cls-2_marketing-1-91 targetColor" d="M334.53,98.45h109.83c1.31,0,2.37,1.06,2.37,2.37h0c0,1.31-1.06,2.37-2.37,2.37h-109.83c-1.31,0-2.37-1.06-2.37-2.37h0c0-1.31,1.06-2.37,2.37-2.37Z" style="fill: rgb(0, 104, 55);"/><path class="cls-2_marketing-1-91 targetColor" d="M334.53,114.83h109.83c1.31,0,2.37,1.06,2.37,2.37h0c0,1.31-1.06,2.37-2.37,2.37h-109.83c-1.31,0-2.37-1.06-2.37-2.37h0c0-1.31,1.06-2.37,2.37-2.37Z" style="fill: rgb(0, 104, 55);"/><rect class="cls-2_marketing-1-91 targetColor" x="382.31" y="177.13" width="70.75" height="4.75" rx="1.87" ry="1.87" style="fill: rgb(0, 104, 55);"/><rect class="cls-2_marketing-1-91 targetColor" x="382.31" y="193.49" width="70.75" height="4.75" rx="1.87" ry="1.87" style="fill: rgb(0, 104, 55);"/><rect class="cls-2_marketing-1-91 targetColor" x="382.31" y="271.12" width="70.75" height="4.75" rx="1.87" ry="1.87" style="fill: rgb(0, 104, 55);"/><rect class="cls-2_marketing-1-91 targetColor" x="382.31" y="287.48" width="70.75" height="4.75" rx="1.87" ry="1.87" style="fill: rgb(0, 104, 55);"/><rect class="cls-2_marketing-1-91 targetColor" x="212.29" y="78.57" width="70.75" height="4.75" rx="1.87" ry="1.87" style="fill: rgb(0, 104, 55);"/><rect class="cls-2_marketing-1-91 targetColor" x="212.29" y="94.94" width="70.75" height="4.75" rx="1.87" ry="1.87" style="fill: rgb(0, 104, 55);"/><path class="cls-2_marketing-1-91 targetColor" d="M334.53,131.2h109.83c1.31,0,2.37,1.06,2.37,2.37h0c0,1.31-1.06,2.37-2.37,2.37h-109.83c-1.31,0-2.37-1.06-2.37-2.37h0c0-1.31,1.06-2.37,2.37-2.37Z" style="fill: rgb(0, 104, 55);"/></g></svg>