<svg id="visual" viewBox="0 0 1920 150" width="1920" height="150" xmlns="http://www.w3.org/2000/svg" xmlns:xlink="http://www.w3.org/1999/xlink" version="1.1"><path d="M0 105L45.7 102.8C91.3 100.7 182.7 96.3 274.2 96.3C365.7 96.3 457.3 100.7 548.8 105C640.3 109.3 731.7 113.7 823 116.7C914.3 119.7 1005.7 121.3 1097 115.7C1188.3 110 1279.7 97 1371.2 92.3C1462.7 87.7 1554.3 91.3 1645.8 93.7C1737.3 96 1828.7 97 1874.3 97.5L1920 98L1920 151L1874.3 151C1828.7 151 1737.3 151 1645.8 151C1554.3 151 1462.7 151 1371.2 151C1279.7 151 1188.3 151 1097 151C1005.7 151 914.3 151 823 151C731.7 151 640.3 151 548.8 151C457.3 151 365.7 151 274.2 151C182.7 151 91.3 151 45.7 151L0 151Z" fill="#0066FF" stroke-linecap="round" stroke-linejoin="miter"></path></svg>