<svg id="visual" viewBox="0 0 1920 1000" width="1920" height="1000" xmlns="http://www.w3.org/2000/svg" xmlns:xlink="http://www.w3.org/1999/xlink" version="1.1"><path d="M0 748L40 715.3C80 682.7 160 617.3 240 611.7C320 606 400 660 480 675.7C560 691.3 640 668.7 720 671.8C800 675 880 704 960 695.3C1040 686.7 1120 640.3 1200 663.2C1280 686 1360 778 1440 792.7C1520 807.3 1600 744.7 1680 709.7C1760 674.7 1840 667.3 1880 663.7L1920 660L1920 1001L1880 1001C1840 1001 1760 1001 1680 1001C1600 1001 1520 1001 1440 1001C1360 1001 1280 1001 1200 1001C1120 1001 1040 1001 960 1001C880 1001 800 1001 720 1001C640 1001 560 1001 480 1001C400 1001 320 1001 240 1001C160 1001 80 1001 40 1001L0 1001Z" fill="#4D4D4D" stroke-linecap="round" stroke-linejoin="miter"></path></svg>