<svg id="visual" viewBox="0 0 1920 500" width="1920" height="500" xmlns="http://www.w3.org/2000/svg" xmlns:xlink="http://www.w3.org/1999/xlink" version="1.1"><path d="M0 370L35.5 370.7C71 371.3 142 372.7 213.2 354.3C284.3 336 355.7 298 426.8 294.5C498 291 569 322 640 330C711 338 782 323 853.2 326.7C924.3 330.3 995.7 352.7 1066.8 352.8C1138 353 1209 331 1280 337.3C1351 343.7 1422 378.3 1493.2 383.2C1564.3 388 1635.7 363 1706.8 365.2C1778 367.3 1849 396.7 1884.5 411.3L1920 426L1920 501L1884.5 501C1849 501 1778 501 1706.8 501C1635.7 501 1564.3 501 1493.2 501C1422 501 1351 501 1280 501C1209 501 1138 501 1066.8 501C995.7 501 924.3 501 853.2 501C782 501 711 501 640 501C569 501 498 501 426.8 501C355.7 501 284.3 501 213.2 501C142 501 71 501 35.5 501L0 501Z" fill="#4D4D4D" stroke-linecap="round" stroke-linejoin="miter"></path></svg>